<svg id="svg" xmlns="http://www.w3.org/2000/svg" xmlns:xlink="http://www.w3.org/1999/xlink" width="400" height="404.2253521126761" viewBox="0, 0, 400,404.2253521126761" version="1.1"><g id="svgg"><path id="path0" d="M95.423 55.431 C 77.897 57.173,59.525 71.625,52.442 89.240 C 48.408 99.272,48.529 95.382,48.754 207.394 L 48.961 310.211 50.585 315.481 C 56.297 334.017,70.424 347.906,89.085 353.333 C 94.360 354.868,292.086 355.678,302.394 354.207 C 325.228 350.949,343.420 333.100,347.594 309.859 C 348.803 303.126,349.049 111.710,347.861 102.234 C 345.166 80.745,329.711 62.999,308.099 56.579 C 304.135 55.401,106.451 54.334,95.423 55.431 M302.214 73.551 C 314.284 76.110,324.160 84.868,328.608 96.958 L 330.634 102.465 330.634 204.930 C 330.634 303.184,330.580 307.554,329.316 311.268 C 325.007 323.939,314.990 333.355,302.751 336.240 C 297.270 337.532,102.540 337.890,95.695 336.621 C 81.926 334.067,69.493 321.445,66.955 307.441 C 65.883 301.529,65.897 107.152,66.970 101.971 C 69.778 88.405,82.120 75.814,95.070 73.304 C 100.914 72.171,296.806 72.405,302.214 73.551 M176.710 196.608 C 152.957 219.641,151.596 221.676,155.986 227.607 C 161.363 234.872,165.059 233.167,183.185 215.054 L 198.577 199.675 214.289 215.330 L 230.001 230.986 233.609 230.986 C 237.943 230.986,241.130 228.742,242.176 224.955 C 243.509 220.127,242.729 219.101,221.993 198.414 L 202.407 178.873 198.704 178.873 L 195.000 178.873 176.710 196.608 " stroke="none" fill="#000000" fill-rule="evenodd"></path></g></svg>